<svg xmlns="http://www.w3.org/2000/svg" width="256" height="256" viewBox="0 0 100 100"><rect width="100" height="100" rx="50" fill="#c40000"></rect><path fill="#fff" d="M72.32 83.07L60.71 83.07L47.39 58.05Q43.25 58.23 40.01 58.23L40.01 58.23L37.49 58.23L37.49 83.07L27.68 83.07L27.68 16.92L42.71 16.92Q54.14 16.92 61.52 21.65Q68.90 26.37 68.90 36.99L68.90 36.99Q68.90 43.65 65.80 48.47Q62.69 53.28 56.57 55.89L56.57 55.89L72.32 83.07ZM37.49 50.04L43.88 50.04Q52.70 50.04 55.98 46.22Q59.27 42.39 59.27 37.08L59.27 37.08Q59.27 25.29 43.52 25.29L43.52 25.29L37.49 25.29L37.49 50.04Z"></path></svg>